<svg viewBox="0 0 451.4 451.4" xmlns="http://www.w3.org/2000/svg"><path d="M343.8 203.4c0-56.1-60.4-101.7-135-101.7-74.5 0-135 45.5-135 101.7 0 25.7 12.7 49.2 33.6 67.1L76 333.3c-1.4 2.8-.3 4 2.6 2.6l77.6-38.7c16.2 5.2 34 8 52.6 8 74.6-.1 135-45.7 135-101.8zm-75.5-19c10.4 0 18.9 8.5 18.9 18.9s-8.5 18.9-18.9 18.9-18.9-8.5-18.9-18.9c0-10.5 8.5-18.9 18.9-18.9zm-119 37.8c-10.4 0-18.9-8.5-18.9-18.9s8.5-18.9 18.9-18.9c10.5 0 18.9 8.5 18.9 18.9s-8.4 18.9-18.9 18.9zm40.7-18.9c0-10.4 8.5-18.9 18.9-18.9s18.9 8.5 18.9 18.9-8.5 18.9-18.9 18.9-18.9-8.5-18.9-18.9z" fill="#bdbdbd"/><path d="M338.9 199.3c0-56.1-60.4-101.7-135-101.7-74.5 0-135 45.5-135 101.7 0 25.7 12.7 49.2 33.6 67.1l-31.4 62.8c-1.4 2.8-.3 4 2.6 2.6l77.6-38.7c16.2 5.2 34 8 52.6 8 74.6-.1 135-45.6 135-101.8zm-75.4-19c10.4 0 18.9 8.5 18.9 18.9s-8.5 18.9-18.9 18.9-18.9-8.5-18.9-18.9 8.4-18.9 18.9-18.9zm-119 37.8c-10.4 0-18.9-8.5-18.9-18.9s8.5-18.9 18.9-18.9c10.5 0 18.9 8.5 18.9 18.9 0 10.5-8.5 18.9-18.9 18.9zm40.6-18.9c0-10.4 8.5-18.9 18.9-18.9s18.9 8.5 18.9 18.9-8.5 18.9-18.9 18.9-18.9-8.4-18.9-18.9z" fill="#fff"/><path d="M324.7 125.3c-1.1.1-2.2-.2-3.1-.9-1.8-1.4-2.1-4-.7-5.8l35.6-41.8c1.4-1.8 4-2.1 5.8-.7s2.1 4 .7 5.8l-35.6 41.8c-.6.9-1.6 1.5-2.7 1.6zM379.3 144.1l-37.9 9.3c-2.2.6-4.5-.8-5-3-.6-2.2.8-4.5 3-5l37.9-9.3c2.2-.6 4.5.8 5 3s-.8 4.5-3 5zM295.6 114.4c-2.3-.3-3.9-2.4-3.6-4.6l4.3-38.5c.3-2.3 2.4-3.9 4.6-3.6 2.3.3 3.9 2.4 3.6 4.6l-4.3 38.5c-.2 2.3-2.3 3.9-4.6 3.6z" fill="#bdbdbd"/><path d="M320.6 122c-1.1.1-2.2-.2-3.1-.9-1.8-1.4-2.1-4-.7-5.8l35.6-41.8c1.4-1.8 4-2.1 5.8-.7s2.1 4 .7 5.8l-35.6 41.8c-.6 1-1.6 1.5-2.7 1.6zM375.2 140.9l-37.9 9.3c-2.2.6-4.5-.8-5-3-.6-2.2.8-4.5 3-5l37.9-9.3c2.2-.6 4.5.8 5 3 .6 2.2-.8 4.4-3 5zM291.5 111.2c-2.3-.3-3.9-2.4-3.6-4.6l4.3-38.5c.3-2.3 2.4-3.9 4.6-3.6 2.3.3 3.9 2.4 3.6 4.6l-4.3 38.5c-.2 2.2-2.3 3.9-4.6 3.6z" fill="#fff"/><g><path d="M337.9 341.6c14.5-12.4 23.3-28.7 23.3-46.6 0-12.6-4.4-24.4-12-34.6-3.2 7.7-7.5 16.2-14.2 20.6 2.1 4.4 3.2 9.1 3.2 14 0 25.9-32.4 47.7-70.8 47.7-22.2 0-42.4-7.3-55.5-18.4-5.9.1-11.7-.1-17.6-.4-1 0-1-1.7 0-1.6 3.2.1 6.4.2 9.7.3-7.9-.6-15.8-.7-23.5-2.4-.3 0-.6-.1-.9-.1 13.4 26.7 47.6 45.6 87.7 45.6 13 0 25.3-2 36.6-5.6l52.4 26.1c2.8 1.4 4 .3 2.6-2.6z" fill="#bdbdbd"/></g><g><path d="M356.4 290.9c0-11-3.4-21.4-9.3-30.7-20.1 37.1-68.5 63.3-125 63.3-16.3 0-32-2.2-46.4-6.2 13.9 25.9 47.6 44.2 87 44.2 13 0 25.3-2 36.6-5.6l52.4 26.1c2.8 1.4 4 .3 2.6-2.6l-21-42.1c14.3-12.2 23.1-28.5 23.1-46.4z" fill="#fff"/></g></svg>