<?xml version="1.0" encoding="UTF-8" standalone="no"?>
<svg
        xmlns:dc="http://purl.org/dc/elements/1.1/"
        xmlns:cc="http://creativecommons.org/ns#"
        xmlns:rdf="http://www.w3.org/1999/02/22-rdf-syntax-ns#"
        xmlns:svg="http://www.w3.org/2000/svg"
        xmlns="http://www.w3.org/2000/svg"
        xmlns:sodipodi="http://sodipodi.sourceforge.net/DTD/sodipodi-0.dtd"
        xmlns:inkscape="http://www.inkscape.org/namespaces/inkscape"
        viewBox="0 0 451.4 451.4"
        version="1.1"
        id="svg18"
        sodipodi:docname="onecolor.svg"
        inkscape:version="0.92.5 (2060ec1f9f, 2020-04-08)">
    <metadata
            id="metadata24">
        <rdf:RDF>
            <cc:Work
                    rdf:about="">
                <dc:format>image/svg+xml</dc:format>
                <dc:type
                        rdf:resource="http://purl.org/dc/dcmitype/StillImage" />
                <dc:title></dc:title>
            </cc:Work>
        </rdf:RDF>
    </metadata>
    <defs
            id="defs22" />
    <sodipodi:namedview
            pagecolor="#ffffff"
            bordercolor="#666666"
            borderopacity="1"
            objecttolerance="10"
            gridtolerance="10"
            guidetolerance="10"
            inkscape:pageopacity="0"
            inkscape:pageshadow="2"
            inkscape:window-width="1634"
            inkscape:window-height="953"
            id="namedview20"
            showgrid="false"
            inkscape:zoom="8.3650865"
            inkscape:cx="357.34692"
            inkscape:cy="312.39312"
            inkscape:window-x="621"
            inkscape:window-y="129"
            inkscape:window-maximized="0"
            inkscape:current-layer="svg18" />
    <path
            d="M338.9 199.3c0-56.1-60.4-101.7-135-101.7-74.5 0-135 45.5-135 101.7 0 25.7 12.7 49.2 33.6 67.1l-31.4 62.8c-1.4 2.8-.3 4 2.6 2.6l77.6-38.7c16.2 5.2 34 8 52.6 8 74.6-.1 135-45.6 135-101.8zm-75.4-19c10.4 0 18.9 8.5 18.9 18.9s-8.5 18.9-18.9 18.9-18.9-8.5-18.9-18.9 8.4-18.9 18.9-18.9zm-119 37.8c-10.4 0-18.9-8.5-18.9-18.9s8.5-18.9 18.9-18.9c10.5 0 18.9 8.5 18.9 18.9 0 10.5-8.5 18.9-18.9 18.9zm40.6-18.9c0-10.4 8.5-18.9 18.9-18.9s18.9 8.5 18.9 18.9-8.5 18.9-18.9 18.9-18.9-8.4-18.9-18.9z"
            id="path4"
            fill="#fff" />
    <path
            d="M320.6 122c-1.1.1-2.2-.2-3.1-.9-1.8-1.4-2.1-4-.7-5.8l35.6-41.8c1.4-1.8 4-2.1 5.8-.7s2.1 4 .7 5.8l-35.6 41.8c-.6 1-1.6 1.5-2.7 1.6zM375.2 140.9l-37.9 9.3c-2.2.6-4.5-.8-5-3-.6-2.2.8-4.5 3-5l37.9-9.3c2.2-.6 4.5.8 5 3 .6 2.2-.8 4.4-3 5zM291.5 111.2c-2.3-.3-3.9-2.4-3.6-4.6l4.3-38.5c.3-2.3 2.4-3.9 4.6-3.6 2.3.3 3.9 2.4 3.6 4.6l-4.3 38.5c-.2 2.2-2.3 3.9-4.6 3.6z"
            fill="#fff"
            id="path8" />
    <g
            id="g16">
        <path
                d="M356.4 290.9c0-11-3.4-21.4-9.3-30.7-20.1 37.1-68.5 63.3-125 63.3-16.3 0-32-2.2-46.4-6.2 13.9 25.9 47.6 44.2 87 44.2 13 0 25.3-2 36.6-5.6l52.4 26.1c2.8 1.4 4 .3 2.6-2.6l-21-42.1c14.3-12.2 23.1-28.5 23.1-46.4z"
                fill="#fff"
                id="path14" />
    </g>
</svg>